<svg id="Layer_1" data-name="Layer 1" xmlns="http://www.w3.org/2000/svg" viewBox="0 0 932.11 302.71"><defs><style>.cls-1{fill:none;stroke:#ffab74;stroke-miterlimit:10;stroke-width:2px;}.cls-2{fill:#ffab74;}</style></defs><text x="-433.89" y="-214.42"/><text x="-433.89" y="-214.42"/><polyline class="cls-1" points="237.65 128.98 73.72 143.11 237.65 128.98 375.72 2.69 211.09 1 123.12 87.25 43.47 59.76 2.71 95.75 55.91 94.58 73.72 143.11 194.72 224.29"/><line class="cls-1" x1="43.47" y1="59.76" x2="55.91" y2="94.58"/><path class="cls-1" d="M645,215.42" transform="translate(-433.89 -214.42)"/><polyline class="cls-1" points="211.09 1 237.65 128.98 194.72 224.29"/><line class="cls-1" x1="123.12" y1="87.25" x2="73.72" y2="143.11"/><polygon class="cls-2" points="332.61 282.84 297.84 270.67 209.15 227.77 223.09 197.16 332.61 282.84"/><polygon class="cls-2" points="378.18 302.7 349.35 289.35 228.34 187.19 241.99 155.6 378.18 302.7"/></svg>