<svg id="Layer_1" data-name="Layer 1" xmlns="http://www.w3.org/2000/svg" viewBox="0 0 1071.6 319.4"><defs><style>.cls-1,.cls-2,.cls-4{fill:#fff;}.cls-1,.cls-3{stroke:#383838;}.cls-1,.cls-2,.cls-3{stroke-miterlimit:10;}.cls-2{stroke:#292929;}.cls-3{fill:none;}</style></defs><text x="-294.4" y="-108.02"/><text x="-294.4" y="-108.02"/><polygon class="cls-1" points="121.04 66.17 37.55 73.37 62.71 44.92 107.51 1 121.04 66.17"/><polygon class="cls-1" points="121.04 66.17 99.17 114.72 37.55 73.37 121.04 66.17"/><polygon class="cls-1" points="62.71 44.92 37.55 73.37 28.48 48.65 22.14 30.92 62.71 44.92"/><polygon class="cls-1" points="28.46 48.65 1.36 49.25 22.12 30.92 28.46 48.65"/><polygon class="cls-2" points="191.36 1.85 121.04 66.17 107.51 1 191.36 1.85"/><path class="cls-3" d="M401.91,109" transform="translate(-294.4 -108.02)"/><polygon class="cls-4" points="148.36 130.2 143.13 141.83 100.55 114.06 107.63 98.43 148.36 130.2"/><polygon class="cls-4" points="155.12 115.76 149.34 128.63 108.45 97.11 114.91 82.91 155.12 115.76"/></svg>